<svg xmlns="http://www.w3.org/2000/svg" width="45.436" height="62.853" viewBox="0 0 45.436 62.853">
  <g id="BTC-alt-512" transform="translate(-71 511)">
    <path id="Path_4" data-name="Path 4" d="M82.685-506.264v4.736H71v6.15h2.066c2.276,0,3.383.135,4.084.492a2.709,2.709,0,0,1,1.353,1.771c.1.443.123,4.637.1,13.788l-.037,13.161-.271.43c-.529.849-.787.923-3.555.959l-2.472.049-.283,1.611c-.148.9-.43,2.5-.615,3.555l-.332,1.943H82.685v9.471h6.027v-9.471H93.14v9.471h6.027v-9.594l.283-.049a14.823,14.823,0,0,1,1.5-.135c6.531-.406,11.341-2.509,13.6-5.941a11.78,11.78,0,0,0,1.6-4.1,15.029,15.029,0,0,0,.283-3.678,10.464,10.464,0,0,0-.271-3.346c-.923-3.358-2.891-5.277-6.679-6.544l-1.23-.418,1.021-.713c2.681-1.857,3.739-3.887,3.875-7.368.172-4.416-1.6-7.454-5.5-9.41a18.793,18.793,0,0,0-6.458-1.784c-.873-.1-1.7-.184-1.808-.184-.209,0-.221-.307-.221-4.8V-511H93.14v9.471H88.712V-511H82.685Zm13.1,11.562c2.423.394,3.85.959,4.9,1.906a4.839,4.839,0,0,1,1.55,4.391c-.3,2.1-1.636,3.456-4.293,4.33-1.673.541-2.522.64-5.929.713l-3.3.062v-5.72c0-4.465.037-5.732.16-5.781A49.23,49.23,0,0,1,95.785-494.7Zm-.529,17.282a19.8,19.8,0,0,1,6.814,1.574,4.917,4.917,0,0,1,2.854,5.006,4.558,4.558,0,0,1-2.263,3.985c-2.153,1.439-5.129,2.042-10.775,2.189l-3.173.074v-12.817l.775-.049A56.231,56.231,0,0,1,95.256-477.421Z" transform="translate(0)" fill="#ffeb3b"/>
  </g>
</svg>
