<svg xmlns="http://www.w3.org/2000/svg" width="60.868" height="60.839" viewBox="0 0 60.868 60.839">
  <g id="_1200px-Globe_icon.svg" data-name="1200px-Globe_icon.svg" transform="translate(-5.865 1193.801)">
    <path id="Path_5" data-name="Path 5" d="M34.513-1193.775a30.465,30.465,0,0,0-21.76,11.108,30.377,30.377,0,0,0-6.492,14.361,31.017,31.017,0,0,0-.2,8.387,30.48,30.48,0,0,0,19.567,25.054,30.641,30.641,0,0,0,7.788,1.8,40.378,40.378,0,0,0,5.995-.026,30.625,30.625,0,0,0,6.917-1.537,30.5,30.5,0,0,0,19.06-19.71,29.089,29.089,0,0,0,1.342-8.454,27.86,27.86,0,0,0-.395-5.636A30.452,30.452,0,0,0,45.7-1192.341a30.187,30.187,0,0,0-7.393-1.419C37.628-1193.806,35.2-1193.816,34.513-1193.775Zm.461,11.19v7.383l-.6-.031a37.939,37.939,0,0,1-6.266-.881,20.882,20.882,0,0,1-2.854-.82,21.781,21.781,0,0,1,1.276-2.762,34.488,34.488,0,0,1,6.379-8.587c1.255-1.245,1.757-1.686,1.926-1.686h.138Zm3.325-7.04c.64.564,2.178,2.1,2.792,2.782a35.172,35.172,0,0,1,5.846,8.879,7.166,7.166,0,0,1,.42,1.03,22.762,22.762,0,0,1-3.955,1.05,38.775,38.775,0,0,1-5.159.651l-.6.031v-14.766h.133C37.869-1189.969,38.028-1189.861,38.3-1189.625Zm-8.223.436c-.051.067-.256.292-.451.5a40.382,40.382,0,0,0-4.524,6.148,39.3,39.3,0,0,0-2.239,4.411l-.143.343L22.2-1178a37.583,37.583,0,0,1-5.17-2.649l-.656-.41.533-.569a28.4,28.4,0,0,1,4.232-3.643,27.082,27.082,0,0,1,8.28-3.843C30.22-1189.333,30.2-1189.328,30.076-1189.19Zm13.111.072a26.669,26.669,0,0,1,9.028,4.37,26.4,26.4,0,0,1,3.043,2.664c.922.927.984,1,.9,1.066-.056.041-.3.2-.548.354a39.548,39.548,0,0,1-5.231,2.68l-.477.2-.246-.574c-.348-.8-1.081-2.3-1.511-3.074a38.975,38.975,0,0,0-5.247-7.347c-.241-.266-.441-.492-.441-.5C42.455-1189.318,42.5-1189.307,43.187-1189.118Zm-27.836,10.529a41.916,41.916,0,0,0,6.03,3.1c.2.082.374.174.374.21s-.092.348-.2.7a38.078,38.078,0,0,0-1.675,9.141l-.036.733H9.715v-.256c0-.333.128-1.609.236-2.306A26.692,26.692,0,0,1,13.9-1177.79a6.28,6.28,0,0,1,.84-1.163A5.7,5.7,0,0,1,15.351-1178.589Zm43,.251a26.582,26.582,0,0,1,4.391,11.692c.056.451.118,1.071.133,1.378l.036.558H52.774l-.061-1.014a38.257,38.257,0,0,0-1.675-8.936c-.1-.3-.179-.579-.179-.615a1.417,1.417,0,0,1,.5-.267,41.544,41.544,0,0,0,5.892-3.048,3.2,3.2,0,0,1,.625-.349A3,3,0,0,1,58.353-1178.338Zm-31.679,4.586a39.351,39.351,0,0,0,6.543,1.076c.5.041,1.1.077,1.337.077h.42v7.89H22.463l.036-.5a36.288,36.288,0,0,1,1.563-8.572l.2-.646.753.225C25.439-1174.08,26.182-1173.875,26.674-1173.752Zm21.949.2a36.414,36.414,0,0,1,1.491,8.336l.036.5H37.639v-7.89h.4a40.654,40.654,0,0,0,6.384-.794c1.286-.282,3.776-.937,3.863-1.025C48.337-1174.464,48.383-1174.336,48.624-1173.547Zm-28.795,11.615c.015.067.036.461.056.886a37.008,37.008,0,0,0,1.107,7.2c.179.686.594,2.121.687,2.357.02.067-.154.159-.8.436a45.294,45.294,0,0,0-5.533,2.895,3.035,3.035,0,0,1-.625.343,15.617,15.617,0,0,1-1.271-1.88,26.633,26.633,0,0,1-3.494-9.786c-.108-.7-.236-1.973-.236-2.306v-.256H19.808Zm15.135,3.817-.015,3.935-.282.01a40.2,40.2,0,0,0-9.678,1.629c-.43.128-.794.231-.8.22-.031-.036-.292-.892-.456-1.481a36.184,36.184,0,0,1-1.24-7.568l-.036-.676H34.974Zm15.156-3.3a36.281,36.281,0,0,1-1.24,7.624c-.164.589-.425,1.44-.456,1.476a6.431,6.431,0,0,1-.671-.185,39.775,39.775,0,0,0-9.345-1.639l-.743-.036-.015-3.935-.01-3.93H50.155Zm12.778-.41c0,.123-.026.471-.051.784a26.577,26.577,0,0,1-4.34,12.389,6.877,6.877,0,0,1-.61.84.577.577,0,0,1-.287-.128,42.487,42.487,0,0,0-5.82-3.09c-.692-.292-.876-.395-.856-.456a41.358,41.358,0,0,0,1.173-4.534,36.949,36.949,0,0,0,.646-5.487,2.428,2.428,0,0,1,.031-.451c.031-.072.523-.082,5.072-.082H62.9Zm-27.924,17.666v7.378h-.61l-.681-.63a35.6,35.6,0,0,1-6.8-8.69,33.915,33.915,0,0,1-1.747-3.663,2.039,2.039,0,0,1,.707-.277,37.36,37.36,0,0,1,7.106-1.363c1.137-.1,1.3-.113,1.706-.123l.318-.01Zm4.714-7.245a37.226,37.226,0,0,1,7.7,1.542.12.12,0,0,1,.087.1,24,24,0,0,1-1.225,2.659,34.952,34.952,0,0,1-7.322,9.694l-.681.63h-.61v-14.771l.6.036C38.571-1151.5,39.222-1151.449,39.688-1151.408Zm-16.729,3.3a38.65,38.65,0,0,0,6.471,10.119,3.81,3.81,0,0,1,.348.425,21.693,21.693,0,0,1-3.151-.989,27.078,27.078,0,0,1-9.725-6.568l-.533-.569.656-.41a35.229,35.229,0,0,1,3.156-1.727c.968-.477,2.4-1.112,2.423-1.086C22.611-1148.908,22.77-1148.544,22.959-1148.109Zm28.236-.307a40.59,40.59,0,0,1,4.929,2.659l.123.087-.968.974a26.243,26.243,0,0,1-9.289,6.143,22.334,22.334,0,0,1-3.151.989,5.467,5.467,0,0,1,.5-.6,38.3,38.3,0,0,0,6.343-10l.323-.753.241.1C50.376-1148.775,50.806-1148.59,51.2-1148.416Z" transform="translate(0 0)" fill="#ffeb3b"/>
  </g>
</svg>
