<svg xmlns="http://www.w3.org/2000/svg" width="63.84" height="51.602" viewBox="0 0 63.84 51.602">
  <g id="_24388_1" data-name="24388_1" transform="translate(-0.231 462.87)">
    <path id="Path_6" data-name="Path 6" d="M12.056-462.7a6.83,6.83,0,0,0-3.669,1.959A16.935,16.935,0,0,0,5.306-453.9a11.627,11.627,0,0,0-.3,3.057,6.6,6.6,0,0,0,.4,2.932,5.935,5.935,0,0,1,.424,3.257,6.872,6.872,0,0,1-1.585,3.294,19.823,19.823,0,0,0-3.531,6.426,14.373,14.373,0,0,0-.062,7.063,1.878,1.878,0,0,1-.05,1.585c-.562,1.5-.487,2.658.237,3.257.624.524,1.51.636,3.981.462,2.533-.187,3.482-.062,4.842.636,1.747.9,2.957,2.221,4.455,4.9,2.633,4.692,3.344,5.5,5.054,5.74a16.818,16.818,0,0,0,4.542-.7,23.527,23.527,0,0,1,2.945-.512,11.914,11.914,0,0,0,3.893-.774,4.225,4.225,0,0,0,2.533-3.419,9.358,9.358,0,0,1,2.945-5.391c2.284-2.284,4.105-3.482,5.428-3.594,1.148-.1,1.947.374,2.92,1.7.674.936,1.21,1.323,1.66,1.21.761-.2,2.034-2.071,3.606-5.3.549-1.136,1.335-2.733,1.735-3.556a26.224,26.224,0,0,1,2.8-4.679,21.488,21.488,0,0,0,2.82-5.391c1.784-4.467,3.219-6.451,5.541-7.612a2.524,2.524,0,0,0,1.51-2.309,2.828,2.828,0,0,0-.874-2.521,8.539,8.539,0,0,1-1.884-3.319,10.342,10.342,0,0,0-1.884-3.419,2.573,2.573,0,0,0-3.12-.9A18.11,18.11,0,0,0,54.6-460.74a5.776,5.776,0,0,1-4.043,1.41,6.878,6.878,0,0,1-2.808-.462,9.891,9.891,0,0,0-4.343-.686,7.593,7.593,0,0,0-5.041,2,4.589,4.589,0,0,1-2.945,1.21c-.973,0-1.435-.15-3.519-1.123a10.559,10.559,0,0,0-3.993-1.323,6.252,6.252,0,0,0-3.244.7,3.632,3.632,0,0,1-1.148.374c-.449,0-.5-.025-2.383-1.385a14.138,14.138,0,0,0-6.239-2.72A6.982,6.982,0,0,0,12.056-462.7Z" transform="translate(0 0)" fill="#ffeb3b"/>
  </g>
</svg>
