<svg xmlns="http://www.w3.org/2000/svg" width="61.228" height="55.355" viewBox="0 0 61.228 55.355">
  <g id="stocks-icon-png-3" transform="translate(0 886)">
    <path id="Path_7" data-name="Path 7" d="M0-858.323v27.677H56.1v-35.737h-4.5v31.176H47.733v-20.68l-2.262.012-2.268.019-.019,10.328-.012,10.321H39.361v-25.928H34.8v25.928H30.989v-23.3H26.428v23.3H22.617l-.012-9.016-.019-9.009-2.262-.019-2.268-.013v18.056H14.182v-12.808h-4.5v12.808H4.561l.012-7.254.019-7.26,7.622-5.554c12.477-9.1,15.045-10.971,17.956-13.089l2.774-2.024,4.9,2.1c4.892,2.1,4.9,2.106,5.042,1.981.156-.144,11.09-10.071,13.539-12.3l1.724-1.574,1.543,1.543,1.537,1.537v-8.841H52.387l1.281,1.281c1.106,1.112,1.268,1.293,1.187,1.362-.05.05-2.737,2.487-5.967,5.417s-6.129,5.567-6.448,5.86l-.575.525-4.755-2.043-4.748-2.037-.262.187c-.15.1-6.4,4.655-13.889,10.115l-13.62,9.934-.031-15.319L4.53-885.969l-2.262-.019L0-886Z" fill="#ffeb3b"/>
  </g>
</svg>
